<svg width="15" height="14" viewBox="0 0 15 14" fill="none" xmlns="http://www.w3.org/2000/svg">
<path fill-rule="evenodd" clip-rule="evenodd" d="M1.38305 1.23351C1.26489 1.33509 1.20581 1.48284 1.20581 1.62135C1.20581 1.75987 1.26489 1.90761 1.38305 2.01843L7.29103 7.55903C7.52735 7.77142 7.90152 7.77142 8.12799 7.55903L14.036 2.01843C14.2624 1.7968 14.2624 1.4459 14.036 1.23351C13.7996 1.02112 13.4255 1.02112 13.199 1.23351L7.70458 6.37704L2.22001 1.23351C1.9837 1.02112 1.60952 1.02112 1.38305 1.23351ZM1.38305 6.58943C1.26489 6.69101 1.20581 6.83876 1.20581 6.97727C1.20581 7.11579 1.26489 7.26354 1.38305 7.37435L7.29103 12.9149C7.52735 13.1273 7.90152 13.1273 8.12799 12.9149L14.036 7.37435C14.2624 7.15272 14.2624 6.80182 14.036 6.58943C13.7996 6.37704 13.4255 6.37704 13.199 6.58943L7.71443 11.7422L2.22001 6.58943C1.98369 6.37704 1.60952 6.37704 1.38305 6.58943Z" fill="#E1E4E8" stroke="#E1E4E8"/>
</svg>
