<svg width="65" height="65" viewBox="0 0 65 65" fill="none" xmlns="http://www.w3.org/2000/svg">
<path d="M19.5687 33.2582C19.2557 34.2387 17.9098 39.3439 22.1459 43.6093C24.5974 46.0778 27.3178 46.6665 29.3564 46.6665C30.111 46.6665 30.7708 46.5857 31.2902 46.4898V54.405C31.2902 55.0727 31.828 55.6147 32.4916 55.6147C33.1551 55.6147 33.6929 55.0727 33.6929 54.405V46.487C34.2148 46.5839 34.8807 46.6665 35.6437 46.6665C37.6818 46.6665 40.4031 46.0773 42.8541 43.6093C47.0903 39.3439 45.7444 34.2387 45.4314 33.2578C45.3254 32.893 45.0527 32.5953 44.6909 32.462C44.6177 32.4351 44.0255 32.2239 43.1057 32.0887C47.0354 27.8786 45.7379 22.9601 45.4314 21.9994C45.3254 21.6347 45.0527 21.3365 44.6909 21.2032C44.522 21.1409 41.581 20.0971 38.2304 21.2713C38.4195 20.4897 38.5302 19.6302 38.5302 18.6875C38.5302 12.6553 33.9937 10.004 33.0833 9.53335C32.752 9.35048 32.3499 9.33395 32.0007 9.49744C31.7755 9.60281 26.483 12.153 26.483 18.6875C26.483 19.6321 26.5942 20.493 26.7838 21.276C23.427 20.0938 20.4781 21.1409 20.3092 21.2032C19.9474 21.3365 19.6752 21.6347 19.5691 21.9994C19.2622 22.9601 17.9651 27.8786 21.8944 32.0887C20.9746 32.2239 20.3824 32.4351 20.3092 32.462C19.9474 32.5953 19.6747 32.8935 19.5687 33.2582V33.2582ZM41.1554 41.8988C38.3829 44.6905 35.1698 44.3483 33.8886 44.0625C33.6094 42.7753 33.2715 39.5244 36.0346 36.7421C36.9183 35.8524 37.847 35.2816 38.7438 34.9253C38.9146 34.87 39.0868 34.8091 39.26 34.7415C40.9691 34.2047 42.5017 34.4008 43.2967 34.5775C43.5989 35.9644 43.887 39.1482 41.1554 41.8988V41.8988ZM43.2967 23.3192C43.5989 24.7061 43.887 27.8894 41.1554 30.64C40.2736 31.5279 39.3477 32.0977 38.4533 32.4545C38.2792 32.5107 38.1037 32.5731 37.9267 32.6416C36.2144 33.1793 34.6794 32.9809 33.8867 32.8032C33.7981 32.4001 33.7037 31.8076 33.7 31.0993C33.7 31.0889 33.7004 31.079 33.7004 31.0686C33.6986 29.6482 34.0637 27.7689 35.5574 26.0041C35.7343 25.8269 35.9121 25.6364 36.0886 25.4318C38.8451 22.7011 42.0207 23.0347 43.2967 23.3192V23.3192ZM32.5005 11.9862C33.6882 12.7512 36.1275 14.7973 36.1275 18.6875C36.1275 20.9991 35.266 22.6577 34.3297 23.779C34.135 23.9751 33.9529 24.173 33.7812 24.3725C33.3011 24.8426 32.8412 25.1776 32.5085 25.3912C32.1321 25.1479 31.5896 24.7472 31.0382 24.1678C30.9819 24.1059 30.9251 24.044 30.867 23.9821C29.8632 22.8594 28.8852 21.1371 28.8852 18.6875C28.8852 14.7443 31.3916 12.6983 32.5005 11.9862V11.9862ZM21.7029 23.3216C22.9859 23.0409 26.2075 22.7073 28.9654 25.4838C28.9833 25.5018 28.9988 25.5193 29.0161 25.5367C29.1217 25.6558 29.2273 25.7697 29.3329 25.8793C30.7708 27.5133 31.2208 29.2583 31.2902 30.6532V31.4603C31.2635 32.0094 31.187 32.471 31.1138 32.8027C30.3184 32.9809 28.782 33.1789 27.0696 32.6402C26.8959 32.5731 26.7232 32.5117 26.5515 32.4564C25.6556 32.0996 24.7279 31.5293 23.8447 30.64C21.1145 27.8909 21.4007 24.7098 21.7029 23.3216ZM21.7029 34.5799C22.5106 34.4032 24.0859 34.2061 25.8302 34.7765C25.9452 34.8195 26.0597 34.8606 26.1737 34.8984C27.0973 35.2513 28.0565 35.8273 28.9654 36.7421C30.6975 38.4867 31.2152 40.4037 31.2902 41.912V42.7191C31.2635 43.2682 31.187 43.7293 31.1138 44.0611C29.8299 44.3483 26.6167 44.69 23.8447 41.8988C21.1145 39.1497 21.4007 35.9682 21.7029 34.5799Z" fill="#E1E4E8"/>
<path d="M12.267 49.0356C11.5552 49.0356 10.8694 49.2015 10.2514 49.5127C6.50642 44.6408 4.45204 38.6142 4.45204 32.4408C4.45204 17.01 16.978 4.45651 32.375 4.45651C34.3369 4.45651 36.2956 4.66124 38.197 5.06561C38.8367 5.20133 39.4643 4.79186 39.5997 4.15173C39.7356 3.51067 39.327 2.88165 38.6878 2.74547C36.6256 2.30729 34.5014 2.08496 32.375 2.08496C24.2845 2.08496 16.678 5.24255 10.9572 10.976C5.23636 16.7094 2.08569 24.3326 2.08569 32.4408C2.08569 39.1969 4.35406 45.7923 8.48639 51.1029C8.02144 51.8236 7.77094 52.6629 7.77094 53.5416C7.77094 54.7449 8.23866 55.8765 9.08814 56.7279C9.93716 57.5788 11.0663 58.0475 12.267 58.0475C13.4682 58.0475 14.5973 57.5788 15.4463 56.7279C16.2958 55.8765 16.7631 54.7449 16.7631 53.5416C16.7631 52.3382 16.2953 51.2066 15.4463 50.3553C14.5973 49.5044 13.4682 49.0356 12.267 49.0356V49.0356ZM13.7732 55.0507C12.9427 55.883 11.5918 55.883 10.7612 55.0507C10.3591 54.6477 10.1373 54.1118 10.1373 53.5416C10.1373 52.9714 10.3591 52.4355 10.7612 52.032C11.1763 51.6161 11.7216 51.4081 12.267 51.4081C12.8124 51.4081 13.3577 51.6161 13.7732 52.032C14.1753 52.435 14.3967 52.9714 14.3967 53.5416C14.3967 54.1118 14.1753 54.6477 13.7732 55.0507V55.0507Z" fill="#E1E4E8"/>
<path d="M56.5339 13.8968C56.9974 13.1761 57.2471 12.3368 57.2471 11.4581C57.2471 10.2547 56.7808 9.12314 55.934 8.27179C55.0877 7.4209 53.9621 6.95215 52.7652 6.95215C51.5677 6.95215 50.4422 7.4209 49.5958 8.27179C48.7495 9.12314 48.2832 10.2547 48.2832 11.4581C48.2832 12.6615 48.7495 13.7931 49.5958 14.6444C50.4422 15.4953 51.5677 15.964 52.7652 15.964C53.4747 15.964 54.1584 15.7982 54.7748 15.487C58.5076 20.3588 60.5555 26.3854 60.5555 32.5589C60.5555 47.9897 48.069 60.5432 32.7205 60.5432C31.0692 60.5432 29.4152 60.3968 27.8036 60.1082C27.1627 59.9934 26.5495 60.4227 26.4357 61.0675C26.321 61.7123 26.7486 62.3279 27.3899 62.4427C29.1374 62.7558 30.931 62.9147 32.7205 62.9147C40.7854 62.9147 48.368 59.7571 54.0709 54.0237C59.7737 48.2903 62.9144 40.6671 62.9144 32.5589C62.9144 25.8027 60.6532 19.2073 56.5339 13.8968V13.8968ZM51.2641 12.9672C50.4362 12.1353 50.4362 10.7814 51.2641 9.94901C51.665 9.54557 52.198 9.3237 52.7652 9.3237C53.3323 9.3237 53.8654 9.54557 54.2662 9.94901C54.6675 10.352 54.8882 10.8879 54.8882 11.4581C54.8882 12.0283 54.6675 12.5642 54.2662 12.9672C53.8654 13.3706 53.3323 13.5925 52.7652 13.5925C52.198 13.5925 51.665 13.3706 51.2641 12.9672Z" fill="#E1E4E8"/>
<path d="M22.0592 58.1507L21.5392 59.4344L22.0555 58.1491C21.3497 57.8626 20.5466 58.2048 20.2612 58.9146C19.9759 59.6245 20.3167 60.4323 21.0224 60.7192L21.065 60.7366C21.2275 60.7988 21.3949 60.8286 21.5597 60.8286C22.1147 60.8286 22.639 60.4907 22.8489 59.9396C23.1213 59.2243 22.7703 58.4246 22.0592 58.1507V58.1507Z" fill="#E1E4E8"/>
<path d="M42.9269 6.8439L42.9425 6.8504C43.1118 6.91916 43.2869 6.95165 43.4589 6.95165C44.0049 6.95165 44.5218 6.62407 44.739 6.08479C45.0242 5.37496 44.683 4.56713 43.9763 4.28016L43.9515 4.27042C43.2444 3.98616 42.4412 4.3316 42.1583 5.04251C41.8747 5.75343 42.2192 6.55964 42.9269 6.8439Z" fill="#E1E4E8"/>
</svg>
